<mxfile host="app.diagrams.net" modified="2022-11-19T09:38:12.921Z" agent="5.0 (Windows NT 10.0; Win64; x64) AppleWebKit/537.36 (KHTML, like Gecko) Chrome/107.0.0.0 Safari/537.36" etag="JYWXd47DeF1NIjg5ry4N" version="20.5.3" type="github" pages="2">
  <diagram id="boT-sCTO2pqx4qBB9Q-A" name="Page-1">
    <mxGraphModel dx="981" dy="608" grid="1" gridSize="10" guides="1" tooltips="1" connect="1" arrows="1" fold="1" page="1" pageScale="1" pageWidth="850" pageHeight="1100" math="0" shadow="0">
      <root>
        <mxCell id="0" />
        <mxCell id="1" parent="0" />
        <mxCell id="s863Jh1xPB8vi0cJ_nku-42" style="edgeStyle=orthogonalEdgeStyle;rounded=0;orthogonalLoop=1;jettySize=auto;html=1;entryX=1;entryY=0.5;entryDx=0;entryDy=0;" edge="1" parent="1" target="s863Jh1xPB8vi0cJ_nku-40">
          <mxGeometry relative="1" as="geometry">
            <mxPoint x="230" y="780" as="sourcePoint" />
          </mxGeometry>
        </mxCell>
        <mxCell id="s863Jh1xPB8vi0cJ_nku-53" value="Platform Service" style="shape=umlLifeline;perimeter=lifelinePerimeter;whiteSpace=wrap;html=1;container=1;collapsible=0;recursiveResize=0;outlineConnect=0;fillColor=#d5e8d4;strokeColor=#82b366;" vertex="1" parent="1">
          <mxGeometry x="215" y="100" width="100" height="310" as="geometry" />
        </mxCell>
        <mxCell id="s863Jh1xPB8vi0cJ_nku-59" value="" style="html=1;points=[];perimeter=orthogonalPerimeter;" vertex="1" parent="s863Jh1xPB8vi0cJ_nku-53">
          <mxGeometry x="45" y="90" width="10" height="50" as="geometry" />
        </mxCell>
        <mxCell id="s863Jh1xPB8vi0cJ_nku-82" value="" style="html=1;points=[];perimeter=orthogonalPerimeter;" vertex="1" parent="s863Jh1xPB8vi0cJ_nku-53">
          <mxGeometry x="45" y="170" width="10" height="35" as="geometry" />
        </mxCell>
        <mxCell id="s863Jh1xPB8vi0cJ_nku-85" value="" style="html=1;points=[];perimeter=orthogonalPerimeter;" vertex="1" parent="s863Jh1xPB8vi0cJ_nku-53">
          <mxGeometry x="45" y="241" width="10" height="35" as="geometry" />
        </mxCell>
        <mxCell id="s863Jh1xPB8vi0cJ_nku-55" value="" style="shape=umlLifeline;participant=umlActor;perimeter=lifelinePerimeter;whiteSpace=wrap;html=1;container=1;collapsible=0;recursiveResize=0;verticalAlign=top;spacingTop=36;outlineConnect=0;" vertex="1" parent="1">
          <mxGeometry x="90" y="100" width="20" height="300" as="geometry" />
        </mxCell>
        <mxCell id="s863Jh1xPB8vi0cJ_nku-60" value="Create Platform" style="html=1;verticalAlign=bottom;endArrow=block;entryX=0;entryY=0;rounded=0;" edge="1" parent="1">
          <mxGeometry relative="1" as="geometry">
            <mxPoint x="99.81034482758616" y="190" as="sourcePoint" />
            <mxPoint x="260" y="190" as="targetPoint" />
          </mxGeometry>
        </mxCell>
        <mxCell id="s863Jh1xPB8vi0cJ_nku-61" value="Return new Platform" style="html=1;verticalAlign=bottom;endArrow=open;dashed=1;endSize=8;exitX=0;exitY=0.95;rounded=0;" edge="1" parent="1">
          <mxGeometry relative="1" as="geometry">
            <mxPoint x="99.81034482758616" y="239.5" as="targetPoint" />
            <mxPoint x="260" y="239.5" as="sourcePoint" />
          </mxGeometry>
        </mxCell>
        <mxCell id="s863Jh1xPB8vi0cJ_nku-62" value="RabbitMQ" style="shape=umlLifeline;perimeter=lifelinePerimeter;whiteSpace=wrap;html=1;container=1;collapsible=0;recursiveResize=0;outlineConnect=0;fillColor=#ffe6cc;strokeColor=#d79b00;" vertex="1" parent="1">
          <mxGeometry x="380" y="100" width="100" height="310" as="geometry" />
        </mxCell>
        <mxCell id="s863Jh1xPB8vi0cJ_nku-64" value="" style="html=1;points=[];perimeter=orthogonalPerimeter;" vertex="1" parent="s863Jh1xPB8vi0cJ_nku-62">
          <mxGeometry x="45" y="50" width="10" height="250" as="geometry" />
        </mxCell>
        <mxCell id="s863Jh1xPB8vi0cJ_nku-63" value="Commands Service" style="shape=umlLifeline;perimeter=lifelinePerimeter;whiteSpace=wrap;html=1;container=1;collapsible=0;recursiveResize=0;outlineConnect=0;fillColor=#dae8fc;strokeColor=#6c8ebf;" vertex="1" parent="1">
          <mxGeometry x="680" y="100" width="100" height="310" as="geometry" />
        </mxCell>
        <mxCell id="s863Jh1xPB8vi0cJ_nku-78" value="Creating Platfom" style="html=1;points=[];perimeter=orthogonalPerimeter;" vertex="1" parent="s863Jh1xPB8vi0cJ_nku-63">
          <mxGeometry x="45" y="140" width="10" height="45" as="geometry" />
        </mxCell>
        <mxCell id="s863Jh1xPB8vi0cJ_nku-65" value="Publish Platform Created &lt;br&gt;message" style="html=1;verticalAlign=bottom;startArrow=none;endArrow=block;startSize=8;rounded=0;startFill=0;" edge="1" parent="1">
          <mxGeometry relative="1" as="geometry">
            <mxPoint x="270" y="218" as="sourcePoint" />
            <mxPoint x="425" y="218" as="targetPoint" />
            <Array as="points">
              <mxPoint x="370" y="218" />
            </Array>
          </mxGeometry>
        </mxCell>
        <mxCell id="s863Jh1xPB8vi0cJ_nku-77" value="Consume Created Platform" style="html=1;verticalAlign=bottom;startArrow=none;startFill=0;endArrow=block;startSize=8;rounded=0;exitX=0.5;exitY=0;exitDx=0;exitDy=0;exitPerimeter=0;" edge="1" parent="1" source="s863Jh1xPB8vi0cJ_nku-78" target="s863Jh1xPB8vi0cJ_nku-62">
          <mxGeometry width="60" relative="1" as="geometry">
            <mxPoint x="729.5" y="246.9799999999999" as="sourcePoint" />
            <mxPoint x="434.1700000000001" y="246.9799999999999" as="targetPoint" />
          </mxGeometry>
        </mxCell>
        <mxCell id="s863Jh1xPB8vi0cJ_nku-83" value="Get all Platforms" style="html=1;verticalAlign=bottom;startArrow=none;startFill=0;endArrow=block;startSize=8;rounded=0;" edge="1" parent="1">
          <mxGeometry width="60" relative="1" as="geometry">
            <mxPoint x="99.81034482758616" y="271" as="sourcePoint" />
            <mxPoint x="260" y="271" as="targetPoint" />
          </mxGeometry>
        </mxCell>
        <mxCell id="s863Jh1xPB8vi0cJ_nku-84" value="Return all Platforms" style="html=1;verticalAlign=bottom;endArrow=open;dashed=1;endSize=8;exitX=0;exitY=0.95;rounded=0;" edge="1" parent="1">
          <mxGeometry relative="1" as="geometry">
            <mxPoint x="98.81034482758616" y="303.5" as="targetPoint" />
            <mxPoint x="259" y="303.5" as="sourcePoint" />
          </mxGeometry>
        </mxCell>
        <mxCell id="s863Jh1xPB8vi0cJ_nku-86" value="Get Platform by ID" style="html=1;verticalAlign=bottom;startArrow=none;startFill=0;endArrow=block;startSize=8;rounded=0;" edge="1" parent="1">
          <mxGeometry width="60" relative="1" as="geometry">
            <mxPoint x="100.00034482758616" y="343" as="sourcePoint" />
            <mxPoint x="260.19" y="343" as="targetPoint" />
          </mxGeometry>
        </mxCell>
        <mxCell id="s863Jh1xPB8vi0cJ_nku-87" value="Return Platform if existing" style="html=1;verticalAlign=bottom;endArrow=open;dashed=1;endSize=8;exitX=0;exitY=0.95;rounded=0;" edge="1" parent="1">
          <mxGeometry relative="1" as="geometry">
            <mxPoint x="98.81034482758616" y="375.5000000000001" as="targetPoint" />
            <mxPoint x="259" y="375.5000000000001" as="sourcePoint" />
          </mxGeometry>
        </mxCell>
        <mxCell id="s863Jh1xPB8vi0cJ_nku-89" value="Platform Service sequence diagram" style="text;html=1;align=center;verticalAlign=middle;resizable=0;points=[];autosize=1;strokeColor=none;fillColor=none;fontSize=22;" vertex="1" parent="1">
          <mxGeometry x="240" y="20" width="370" height="40" as="geometry" />
        </mxCell>
        <mxCell id="s863Jh1xPB8vi0cJ_nku-90" value="Commands Service sequence diagram" style="text;html=1;align=center;verticalAlign=middle;resizable=0;points=[];autosize=1;strokeColor=none;fillColor=none;fontSize=22;" vertex="1" parent="1">
          <mxGeometry x="225" y="460" width="400" height="40" as="geometry" />
        </mxCell>
        <mxCell id="s863Jh1xPB8vi0cJ_nku-91" value="Commands Service" style="shape=umlLifeline;perimeter=lifelinePerimeter;whiteSpace=wrap;html=1;container=1;collapsible=0;recursiveResize=0;outlineConnect=0;fillColor=#dae8fc;strokeColor=#6c8ebf;" vertex="1" parent="1">
          <mxGeometry x="305" y="520" width="100" height="310" as="geometry" />
        </mxCell>
        <mxCell id="s863Jh1xPB8vi0cJ_nku-101" value="Persist missing platforms" style="html=1;points=[];perimeter=orthogonalPerimeter;fontSize=12;" vertex="1" parent="s863Jh1xPB8vi0cJ_nku-91">
          <mxGeometry x="45" y="80" width="10" height="30" as="geometry" />
        </mxCell>
        <mxCell id="s863Jh1xPB8vi0cJ_nku-102" value="" style="html=1;points=[];perimeter=orthogonalPerimeter;fontSize=12;fontColor=#99FF99;" vertex="1" parent="s863Jh1xPB8vi0cJ_nku-91">
          <mxGeometry x="45" y="132" width="10" height="38" as="geometry" />
        </mxCell>
        <mxCell id="s863Jh1xPB8vi0cJ_nku-108" value="" style="html=1;points=[];perimeter=orthogonalPerimeter;fontSize=12;fontColor=#99FF99;" vertex="1" parent="s863Jh1xPB8vi0cJ_nku-91">
          <mxGeometry x="45" y="200" width="10" height="40" as="geometry" />
        </mxCell>
        <mxCell id="s863Jh1xPB8vi0cJ_nku-109" value="Get Platform Commands" style="html=1;verticalAlign=bottom;endArrow=block;rounded=0;fontSize=12;horizontal=1;entryX=0;entryY=0;entryDx=0;entryDy=0;entryPerimeter=0;" edge="1" parent="s863Jh1xPB8vi0cJ_nku-91">
          <mxGeometry width="80" relative="1" as="geometry">
            <mxPoint x="-115.18965517241372" y="200" as="sourcePoint" />
            <mxPoint x="45" y="200" as="targetPoint" />
          </mxGeometry>
        </mxCell>
        <mxCell id="fXogm0IfwL1jq10Wv2HK-1" value="" style="html=1;points=[];perimeter=orthogonalPerimeter;fontSize=12;fontColor=#99FF99;" vertex="1" parent="s863Jh1xPB8vi0cJ_nku-91">
          <mxGeometry x="45" y="269.31" width="10" height="20.69" as="geometry" />
        </mxCell>
        <mxCell id="fXogm0IfwL1jq10Wv2HK-2" value="Get Command" style="html=1;verticalAlign=bottom;endArrow=block;rounded=0;fontSize=12;horizontal=1;entryX=0;entryY=0;entryDx=0;entryDy=0;entryPerimeter=0;" edge="1" parent="s863Jh1xPB8vi0cJ_nku-91">
          <mxGeometry width="80" relative="1" as="geometry">
            <mxPoint x="-115.18965517241372" y="269.30999999999995" as="sourcePoint" />
            <mxPoint x="45" y="269.30999999999995" as="targetPoint" />
          </mxGeometry>
        </mxCell>
        <mxCell id="fXogm0IfwL1jq10Wv2HK-3" value="Retrun Command" style="html=1;verticalAlign=bottom;endArrow=open;dashed=1;endSize=8;rounded=0;fontSize=12;" edge="1" parent="s863Jh1xPB8vi0cJ_nku-91" target="s863Jh1xPB8vi0cJ_nku-93">
          <mxGeometry relative="1" as="geometry">
            <mxPoint x="45.00000000000006" y="289.99999999999994" as="sourcePoint" />
            <mxPoint x="-120.19" y="289.99999999999994" as="targetPoint" />
          </mxGeometry>
        </mxCell>
        <mxCell id="s863Jh1xPB8vi0cJ_nku-93" value="" style="shape=umlLifeline;participant=umlActor;perimeter=lifelinePerimeter;whiteSpace=wrap;html=1;container=1;collapsible=0;recursiveResize=0;verticalAlign=top;spacingTop=36;outlineConnect=0;" vertex="1" parent="1">
          <mxGeometry x="180" y="520" width="20" height="310" as="geometry" />
        </mxCell>
        <mxCell id="s863Jh1xPB8vi0cJ_nku-94" value="Platform Service" style="shape=umlLifeline;perimeter=lifelinePerimeter;whiteSpace=wrap;html=1;container=1;collapsible=0;recursiveResize=0;outlineConnect=0;fillColor=#d5e8d4;strokeColor=#82b366;" vertex="1" parent="1">
          <mxGeometry x="490" y="520" width="100" height="310" as="geometry" />
        </mxCell>
        <mxCell id="s863Jh1xPB8vi0cJ_nku-99" value="return platforms" style="html=1;verticalAlign=bottom;endArrow=open;dashed=1;endSize=8;rounded=0;fontSize=12;" edge="1" parent="s863Jh1xPB8vi0cJ_nku-94" target="s863Jh1xPB8vi0cJ_nku-91">
          <mxGeometry relative="1" as="geometry">
            <mxPoint x="50" y="80" as="sourcePoint" />
            <mxPoint x="-30" y="80" as="targetPoint" />
          </mxGeometry>
        </mxCell>
        <mxCell id="s863Jh1xPB8vi0cJ_nku-100" value="" style="html=1;points=[];perimeter=orthogonalPerimeter;fontSize=12;" vertex="1" parent="s863Jh1xPB8vi0cJ_nku-94">
          <mxGeometry x="45" y="60" width="10" height="20" as="geometry" />
        </mxCell>
        <mxCell id="s863Jh1xPB8vi0cJ_nku-98" value="Get all Platforms (GRPC)" style="html=1;verticalAlign=bottom;endArrow=block;rounded=0;fontSize=12;horizontal=1;entryX=0.09;entryY=0.048;entryDx=0;entryDy=0;entryPerimeter=0;" edge="1" parent="1" target="s863Jh1xPB8vi0cJ_nku-100">
          <mxGeometry width="80" relative="1" as="geometry">
            <mxPoint x="354.8103448275863" y="581" as="sourcePoint" />
            <mxPoint x="530" y="581" as="targetPoint" />
          </mxGeometry>
        </mxCell>
        <mxCell id="s863Jh1xPB8vi0cJ_nku-105" value="Create Command" style="html=1;verticalAlign=bottom;endArrow=block;rounded=0;fontSize=12;horizontal=1;entryX=0;entryY=0;entryDx=0;entryDy=0;entryPerimeter=0;" edge="1" parent="1">
          <mxGeometry width="80" relative="1" as="geometry">
            <mxPoint x="189.81034482758628" y="653" as="sourcePoint" />
            <mxPoint x="350" y="653" as="targetPoint" />
          </mxGeometry>
        </mxCell>
        <mxCell id="s863Jh1xPB8vi0cJ_nku-106" value="return new Command" style="html=1;verticalAlign=bottom;endArrow=open;dashed=1;endSize=8;rounded=0;fontSize=12;" edge="1" parent="1">
          <mxGeometry relative="1" as="geometry">
            <mxPoint x="355.19" y="690" as="sourcePoint" />
            <mxPoint x="190" y="690" as="targetPoint" />
          </mxGeometry>
        </mxCell>
        <mxCell id="s863Jh1xPB8vi0cJ_nku-110" value="Return all Commands for&amp;nbsp;&lt;br&gt;a Platform" style="html=1;verticalAlign=bottom;endArrow=open;dashed=1;endSize=8;rounded=0;fontSize=12;" edge="1" parent="1">
          <mxGeometry relative="1" as="geometry">
            <mxPoint x="355.19000000000005" y="760" as="sourcePoint" />
            <mxPoint x="190" y="760" as="targetPoint" />
          </mxGeometry>
        </mxCell>
      </root>
    </mxGraphModel>
  </diagram>
  <diagram id="KB3MhWYDTUakrUKX-E9b" name="Page-2">
    <mxGraphModel dx="1422" dy="882" grid="1" gridSize="10" guides="1" tooltips="1" connect="1" arrows="1" fold="1" page="1" pageScale="1" pageWidth="850" pageHeight="1100" math="0" shadow="0">
      <root>
        <mxCell id="0" />
        <mxCell id="1" parent="0" />
      </root>
    </mxGraphModel>
  </diagram>
</mxfile>
